HIERARCHY
ROOT mixamorig:Hips
{
	OFFSET 0.000000 104.274902 0.000000
	CHANNELS 6 Xposition Yposition Zposition Xrotation Yrotation Zrotation
	JOINT mixamorig:Spine
	{
		OFFSET 0.000000 10.181549 0.131524
		CHANNELS 6 Xposition Yposition Zposition Xrotation Yrotation Zrotation
		JOINT mixamorig:Spine1
		{
			OFFSET 0.000000 9.893990 -1.470706
			CHANNELS 3 Xrotation Yrotation Zrotation
			JOINT mixamorig:Spine2
			{
				OFFSET 0.000000 9.220787 -1.370637
				CHANNELS 3 Xrotation Yrotation Zrotation
				JOINT mixamorig:Neck
				{
					OFFSET 0.000000 16.740372 -2.049022
					CHANNELS 6 Xposition Yposition Zposition Xrotation Yrotation Zrotation
					JOINT mixamorig:Head
					{
						OFFSET 0.000000 9.617859 1.684976
						CHANNELS 6 Xposition Yposition Zposition Xrotation Yrotation Zrotation
						JOINT mixamorig:HeadTop_End
						{
							OFFSET 0.000000 22.037384 7.501072
							CHANNELS 6 Xposition Yposition Zposition Xrotation Yrotation Zrotation
							End Site
							{
								OFFSET 0.000000 23.106567 -2.828246
							}
						}
					}
				}
				JOINT mixamorig:RightShoulder
				{
					OFFSET -4.570000 11.014877 -2.160840
					CHANNELS 6 Xposition Yposition Zposition Xrotation Yrotation Zrotation
					JOINT mixamorig:RightArm
					{
						OFFSET -10.592867 -0.524796 -2.232105
						CHANNELS 3 Xrotation Yrotation Zrotation
						JOINT mixamorig:RightForeArm
						{
							OFFSET -27.841497 0.000000 -0.000002
							CHANNELS 3 Xrotation Yrotation Zrotation
							JOINT mixamorig:RightHand
							{
								OFFSET -28.328812 0.000000 -0.000001
								CHANNELS 3 Xrotation Yrotation Zrotation
								JOINT mixamorig:RightHandThumb1
								{
									OFFSET -2.464798 -1.573990 2.681911
									CHANNELS 6 Xposition Yposition Zposition Xrotation Yrotation Zrotation
									JOINT mixamorig:RightHandThumb2
									{
										OFFSET -3.244781 -1.873383 1.873376
										CHANNELS 3 Xrotation Yrotation Zrotation
										JOINT mixamorig:RightHandThumb3
										{
											OFFSET -2.646263 -1.527817 1.527818
											CHANNELS 6 Xposition Yposition Zposition Xrotation Yrotation Zrotation
											JOINT mixamorig:RightHandThumb4
											{
												OFFSET -1.994591 -1.151581 1.151575
												CHANNELS 6 Xposition Yposition Zposition Xrotation Yrotation Zrotation
												End Site
												{
													OFFSET -1.860176 -1.142715 1.365483
												}
											}
										}
									}
								}
								JOINT mixamorig:RightHandIndex1
								{
									OFFSET -9.108299 -0.517883 2.259803
									CHANNELS 6 Xposition Yposition Zposition Xrotation Yrotation Zrotation
									JOINT mixamorig:RightHandIndex2
									{
										OFFSET -3.699997 0.000000 0.000000
										CHANNELS 3 Xrotation Yrotation Zrotation
										JOINT mixamorig:RightHandIndex3
										{
											OFFSET -2.850006 0.000000 0.000000
											CHANNELS 3 Xrotation Yrotation Zrotation
											JOINT mixamorig:RightHandIndex4
											{
												OFFSET -2.772194 0.000000 0.000000
												CHANNELS 3 Xrotation Yrotation Zrotation
												End Site
												{
													OFFSET -2.772202 0.000000 -0.000484
												}
											}
										}
									}
								}
								JOINT mixamorig:RightHandMiddle1
								{
									OFFSET -9.532501 0.000000 -0.000000
									CHANNELS 6 Xposition Yposition Zposition Xrotation Yrotation Zrotation
									JOINT mixamorig:RightHandMiddle2
									{
										OFFSET -3.699997 0.000000 0.000000
										CHANNELS 3 Xrotation Yrotation Zrotation
										JOINT mixamorig:RightHandMiddle3
										{
											OFFSET -2.949997 0.000000 0.000000
											CHANNELS 3 Xrotation Yrotation Zrotation
											JOINT mixamorig:RightHandMiddle4
											{
												OFFSET -2.946594 0.000000 0.000000
												CHANNELS 3 Xrotation Yrotation Zrotation
												End Site
												{
													OFFSET -2.946602 0.000000 -0.000982
												}
											}
										}
									}
								}
								JOINT mixamorig:RightHandRing1
								{
									OFFSET -9.103600 -0.043106 -1.865100
									CHANNELS 6 Xposition Yposition Zposition Xrotation Yrotation Zrotation
									JOINT mixamorig:RightHandRing2
									{
										OFFSET -3.379303 0.000000 0.000000
										CHANNELS 3 Xrotation Yrotation Zrotation
										JOINT mixamorig:RightHandRing3
										{
											OFFSET -2.889694 0.000000 0.000000
											CHANNELS 3 Xrotation Yrotation Zrotation
											JOINT mixamorig:RightHandRing4
											{
												OFFSET -2.638802 0.000000 0.000000
												CHANNELS 3 Xrotation Yrotation Zrotation
												End Site
												{
													OFFSET -2.638802 0.000000 0.004218
												}
											}
										}
									}
								}
								JOINT mixamorig:RightHandPinky1
								{
									OFFSET -8.076698 -0.486725 -3.806299
									CHANNELS 6 Xposition Yposition Zposition Xrotation Yrotation Zrotation
									JOINT mixamorig:RightHandPinky2
									{
										OFFSET -3.600006 0.000000 0.000000
										CHANNELS 3 Xrotation Yrotation Zrotation
										JOINT mixamorig:RightHandPinky3
										{
											OFFSET -2.099998 0.000000 0.000000
											CHANNELS 3 Xrotation Yrotation Zrotation
											JOINT mixamorig:RightHandPinky4
											{
												OFFSET -2.115791 0.000000 0.000000
												CHANNELS 3 Xrotation Yrotation Zrotation
												End Site
												{
													OFFSET -2.115799 0.000000 0.000174
												}
											}
										}
									}
								}
							}
						}
					}
				}
				JOINT mixamorig:LeftShoulder
				{
					OFFSET 4.570400 11.014679 -2.160816
					CHANNELS 6 Xposition Yposition Zposition Xrotation Yrotation Zrotation
					JOINT mixamorig:LeftArm
					{
						OFFSET 10.592373 -0.524597 -2.232116
						CHANNELS 3 Xrotation Yrotation Zrotation
						JOINT mixamorig:LeftForeArm
						{
							OFFSET 27.841488 0.000000 0.000001
							CHANNELS 3 Xrotation Yrotation Zrotation
							JOINT mixamorig:LeftHand
							{
								OFFSET 28.328808 0.000000 -0.000000
								CHANNELS 3 Xrotation Yrotation Zrotation
								JOINT mixamorig:LeftHandThumb1
								{
									OFFSET 2.466103 -1.576202 2.681698
									CHANNELS 6 Xposition Yposition Zposition Xrotation Yrotation Zrotation
									JOINT mixamorig:LeftHandThumb2
									{
										OFFSET 3.243317 -1.872528 1.872530
										CHANNELS 3 Xrotation Yrotation Zrotation
										JOINT mixamorig:LeftHandThumb3
										{
											OFFSET 2.647881 -1.528763 1.528754
											CHANNELS 6 Xposition Yposition Zposition Xrotation Yrotation Zrotation
											JOINT mixamorig:LeftHandThumb4
											{
												OFFSET 1.998924 -1.154083 1.154080
												CHANNELS 6 Xposition Yposition Zposition Xrotation Yrotation Zrotation
												End Site
												{
													OFFSET 1.884041 -1.149155 1.337651
												}
											}
										}
									}
								}
								JOINT mixamorig:LeftHandIndex1
								{
									OFFSET 9.109299 -0.518005 2.259900
									CHANNELS 6 Xposition Yposition Zposition Xrotation Yrotation Zrotation
									JOINT mixamorig:LeftHandIndex2
									{
										OFFSET 3.699997 0.000000 0.000000
										CHANNELS 3 Xrotation Yrotation Zrotation
										JOINT mixamorig:LeftHandIndex3
										{
											OFFSET 2.850006 0.000000 0.000000
											CHANNELS 3 Xrotation Yrotation Zrotation
											JOINT mixamorig:LeftHandIndex4
											{
												OFFSET 2.774895 0.000000 0.000000
												CHANNELS 3 Xrotation Yrotation Zrotation
												End Site
												{
													OFFSET 2.774902 0.000000 -0.000072
												}
											}
										}
									}
								}
								JOINT mixamorig:LeftHandMiddle1
								{
									OFFSET 9.533401 0.000000 0.000000
									CHANNELS 6 Xposition Yposition Zposition Xrotation Yrotation Zrotation
									JOINT mixamorig:LeftHandMiddle2
									{
										OFFSET 3.699997 0.000000 0.000000
										CHANNELS 3 Xrotation Yrotation Zrotation
										JOINT mixamorig:LeftHandMiddle3
										{
											OFFSET 2.949997 0.000000 0.000000
											CHANNELS 3 Xrotation Yrotation Zrotation
											JOINT mixamorig:LeftHandMiddle4
											{
												OFFSET 2.952896 0.000000 0.000000
												CHANNELS 3 Xrotation Yrotation Zrotation
												End Site
												{
													OFFSET 2.952904 0.000000 0.000165
												}
											}
										}
									}
								}
								JOINT mixamorig:LeftHandRing1
								{
									OFFSET 9.104500 -0.042999 -1.865101
									CHANNELS 6 Xposition Yposition Zposition Xrotation Yrotation Zrotation
									JOINT mixamorig:LeftHandRing2
									{
										OFFSET 3.149994 0.000000 0.000000
										CHANNELS 3 Xrotation Yrotation Zrotation
										JOINT mixamorig:LeftHandRing3
										{
											OFFSET 2.950005 0.000000 0.000000
											CHANNELS 3 Xrotation Yrotation Zrotation
											JOINT mixamorig:LeftHandRing4
											{
												OFFSET 2.644302 0.000000 0.000000
												CHANNELS 3 Xrotation Yrotation Zrotation
												End Site
												{
													OFFSET 2.644302 0.000000 0.000083
												}
											}
										}
									}
								}
								JOINT mixamorig:LeftHandPinky1
								{
									OFFSET 8.077805 -0.486893 -3.806302
									CHANNELS 6 Xposition Yposition Zposition Xrotation Yrotation Zrotation
									JOINT mixamorig:LeftHandPinky2
									{
										OFFSET 3.600006 0.000000 0.000000
										CHANNELS 3 Xrotation Yrotation Zrotation
										JOINT mixamorig:LeftHandPinky3
										{
											OFFSET 2.099998 0.000000 0.000000
											CHANNELS 3 Xrotation Yrotation Zrotation
											JOINT mixamorig:LeftHandPinky4
											{
												OFFSET 2.125496 0.000000 0.000000
												CHANNELS 3 Xrotation Yrotation Zrotation
												End Site
												{
													OFFSET 2.125504 0.000000 -0.001254
												}
											}
										}
									}
								}
							}
						}
					}
				}
			}
		}
	}
	JOINT mixamorig:RightUpLeg
	{
		OFFSET -8.207800 -6.751701 -1.599544
		CHANNELS 6 Xposition Yposition Zposition Xrotation Yrotation Zrotation
		JOINT mixamorig:RightLeg
		{
			OFFSET 0.000004 -44.370152 0.345934
			CHANNELS 3 Xrotation Yrotation Zrotation
			JOINT mixamorig:RightFoot
			{
				OFFSET 0.000004 -44.423664 -3.043535
				CHANNELS 3 Xrotation Yrotation Zrotation
				JOINT mixamorig:RightToeBase
				{
					OFFSET 0.000001 -8.728691 10.710592
					CHANNELS 3 Xrotation Yrotation Zrotation
					JOINT mixamorig:RightToe_End
					{
						OFFSET 0.000000 -0.000665 9.278101
						CHANNELS 3 Xrotation Yrotation Zrotation
						End Site
						{
							OFFSET 0.000000 -0.000665 9.278103
						}
					}
				}
			}
		}
	}
	JOINT mixamorig:LeftUpLeg
	{
		OFFSET 8.207800 -6.751701 -1.599544
		CHANNELS 6 Xposition Yposition Zposition Xrotation Yrotation Zrotation
		JOINT mixamorig:LeftLeg
		{
			OFFSET 0.000004 -44.370037 0.346940
			CHANNELS 3 Xrotation Yrotation Zrotation
			JOINT mixamorig:LeftFoot
			{
				OFFSET 0.000004 -44.423611 -3.044388
				CHANNELS 3 Xrotation Yrotation Zrotation
				JOINT mixamorig:LeftToeBase
				{
					OFFSET 0.000001 -8.728690 10.710592
					CHANNELS 3 Xrotation Yrotation Zrotation
					JOINT mixamorig:LeftToe_End
					{
						OFFSET 0.000000 -0.000680 9.278101
						CHANNELS 3 Xrotation Yrotation Zrotation
						End Site
						{
							OFFSET 0.000000 -0.000680 9.278101
						}
					}
				}
			}
		}
	}
}
MOTION
Frames: 4
Frame Time: 0.033333
-2.365269 81.702454 -0.285816 1.090583 -51.660358 -4.449134 0.000001 10.181542 0.131525 6.101009 1.082211 2.656851 12.576785 1.679329 1.789414 12.556224 1.846937 1.758079 0.000003 16.740364 -2.049024 -4.755860 5.595153 1.508471 0.000000 9.617835 1.684978 3.381880 31.967430 -25.389200 -0.000001 22.037369 7.501075 -0.000001 0.000000 -0.000000 -4.569997 11.014879 -2.160840 0.301548 0.563501 -1.445055 -42.457525 28.769754 63.324808 0.000393 99.105970 -0.000316 -8.877514 19.709687 7.168711 -2.464794 -1.573983 2.681918 20.791449 -26.827284 29.227315 107.876745 -60.017173 67.953511 -2.646268 -1.527794 1.527812 26.887916 -38.791721 11.080624 -1.994594 -1.151572 1.151584 0.000003 -0.000005 0.000001 -9.108316 -0.517870 2.259811 7.883456 -6.885287 97.754227 8.081438 -6.855638 99.409210 2.438641 -5.291438 49.462160 -0.000000 0.000006 -0.000000 -9.532498 0.000020 0.000004 7.883456 -6.885287 97.754227 8.081441 -6.855639 99.409210 2.438643 -5.291439 49.462160 0.000001 -0.000002 0.000001 -9.103596 -0.043092 -1.865098 7.883455 -6.885285 97.754227 8.081441 -6.855638 99.409210 2.438643 -5.291442 49.462164 -0.000003 -0.000005 -0.000001 -8.076687 -0.486706 -3.806292 7.883458 -6.885292 97.754227 8.081439 -6.855646 99.409210 2.438643 -5.291441 49.462154 -0.000000 -0.000001 0.000003 4.570402 11.014688 -2.160814 -0.023772 5.156905 -1.505492 -45.858372 10.356860 -45.271225 -0.000071 -81.821083 -0.000033 -10.961227 -16.956078 -17.231794 2.466101 -1.576213 2.681696 15.482517 -7.506411 -9.163105 104.737522 41.403360 -77.048564 2.647882 -1.528750 1.528760 31.635527 38.024862 -24.163575 1.998925 -1.154093 1.154069 -0.000002 0.000005 -0.000000 9.109305 -0.518008 2.259897 8.128253 6.767982 -100.465696 7.639898 6.839623 -96.345071 2.277863 5.120337 -47.943939 0.000003 0.000001 -0.000002 9.533412 -0.000004 0.000004 8.126329 6.768319 -100.449468 7.641805 6.839406 -96.361299 2.277858 5.120342 -47.943936 0.000000 -0.000001 -0.000001 9.104504 -0.043016 -1.865103 8.128253 6.767982 -100.465696 7.639896 6.839623 -96.345064 2.277863 5.120336 -47.943939 -0.000001 -0.000003 0.000000 8.077806 -0.486911 -3.806303 12.140495 6.033407 -100.402715 7.637074 2.753466 -96.311753 2.277853 5.120348 -47.943932 0.000001 -0.000002 -0.000000 -8.207805 -6.751701 -1.599541 -34.003615 -8.425816 -28.184996 55.429154 8.662390 -8.387932 -21.414472 -3.884338 27.651599 -0.000006 0.000024 0.000000 0.000000 -0.000001 -0.000000 8.207799 -6.751700 -1.599540 -47.735581 2.478429 43.139004 51.573044 -8.868548 3.153844 -12.466020 -17.822964 -26.102382 -0.000016 0.000005 0.000001 0.000000 -0.000000 0.000000 
-1.836985 82.195129 0.318480 2.088640 -52.189503 -3.517330 -0.000000 10.181554 0.131526 5.958842 1.087022 2.418550 12.282301 1.684777 1.573098 12.263747 1.833262 1.544915 0.000004 16.740360 -2.049019 -4.559419 5.620026 1.372955 -0.000003 9.617831 1.684976 4.118638 31.803120 -25.410313 -0.000001 22.037369 7.501083 0.000002 0.000000 -0.000000 -4.569996 11.014872 -2.160840 0.291237 0.500696 -1.609579 -41.095650 27.902786 61.614672 0.000381 99.484717 -0.000313 -9.490823 19.860670 7.583500 -2.464790 -1.573995 2.681913 20.791448 -26.827286 29.227302 107.876752 -60.017173 67.953518 -2.646272 -1.527809 1.527820 26.887916 -38.791721 11.080624 -1.994597 -1.151600 1.151576 -0.000001 -0.000001 -0.000000 -9.108328 -0.517888 2.259809 7.883455 -6.885285 97.754234 8.081438 -6.855634 99.409210 2.438642 -5.291441 49.462164 0.000001 -0.000004 0.000002 -9.532526 0.000003 -0.000001 7.883458 -6.885287 97.754234 8.081440 -6.855635 99.409210 2.438642 -5.291442 49.462164 -0.000000 0.000000 0.000003 -9.103625 -0.043106 -1.865101 7.883457 -6.885286 97.754227 8.081439 -6.855636 99.409210 2.438645 -5.291439 49.462167 0.000004 -0.000000 0.000000 -8.076686 -0.486724 -3.806298 7.883456 -6.885290 97.754227 8.081441 -6.855644 99.409216 2.438642 -5.291443 49.462154 -0.000000 0.000003 0.000001 4.570403 11.014698 -2.160815 -0.056049 5.229545 -1.148203 -46.331789 10.824348 -43.300541 -0.000106 -82.015682 -0.000050 -11.588040 -16.657720 -17.037550 2.466096 -1.576197 2.681684 15.482528 -7.506413 -9.163100 104.737522 41.403367 -77.048557 2.647909 -1.528737 1.528751 31.635524 38.024858 -24.163573 1.998925 -1.154091 1.154073 -0.000001 0.000003 -0.000000 9.109282 -0.518015 2.259887 8.128259 6.767977 -100.465703 7.639894 6.839621 -96.345077 2.277863 5.120337 -47.943939 0.000003 -0.000002 -0.000002 9.533400 -0.000002 -0.000005 8.126334 6.768315 -100.449468 7.641805 6.839407 -96.361306 2.277866 5.120343 -47.943936 0.000005 -0.000001 -0.000000 9.104500 -0.043006 -1.865104 8.128257 6.767976 -100.465696 7.639894 6.839624 -96.345071 2.277866 5.120337 -47.943939 -0.000001 0.000001 -0.000004 8.077798 -0.486895 -3.806302 12.140497 6.033407 -100.402715 7.637072 2.753468 -96.311753 2.277854 5.120347 -47.943932 -0.000005 -0.000005 -0.000002 -8.207796 -6.751699 -1.599542 -33.973484 -8.377934 -28.155585 53.264462 8.616115 -8.631544 -19.897666 -3.573654 28.024242 -0.000004 0.000018 -0.000002 -0.000000 -0.000001 0.000000 8.207801 -6.751703 -1.599547 -47.766013 2.768252 42.615039 51.509472 -8.772622 2.780264 -12.502177 -17.071018 -25.426458 -0.000013 0.000007 0.000001 0.000000 0.000000 0.000000 
-1.308701 82.687798 0.922777 3.112709 -52.708430 -2.559306 0.000000 10.181536 0.131523 5.816694 1.092423 2.180263 11.987834 1.691340 1.356812 11.971233 1.820674 1.331688 0.000003 16.740379 -2.049021 -4.362916 5.644437 1.237345 -0.000007 9.617852 1.684985 4.854023 31.638604 -25.428910 0.000001 22.037369 7.501074 0.000002 -0.000000 0.000000 -4.569997 11.014875 -2.160837 0.280740 0.437916 -1.774113 -39.774278 27.000827 59.941774 0.000349 99.863479 -0.000321 -10.105863 20.007455 8.000376 -2.464794 -1.573985 2.681913 20.791454 -26.827281 29.227308 107.876745 -60.017180 67.953518 -2.646259 -1.527798 1.527811 26.887916 -38.791721 11.080614 -1.994597 -1.151564 1.151578 0.000001 -0.000001 -0.000000 -9.108305 -0.517869 2.259805 7.883456 -6.885281 97.754227 8.081441 -6.855636 99.409210 2.438644 -5.291441 49.462160 -0.000002 -0.000001 0.000001 -9.532516 0.000020 0.000005 7.883452 -6.885287 97.754227 8.081438 -6.855630 99.409210 2.438643 -5.291441 49.462160 0.000003 0.000000 0.000001 -9.103584 -0.043087 -1.865098 7.883457 -6.885281 97.754227 8.081445 -6.855635 99.409210 2.438638 -5.291441 49.462167 -0.000002 0.000001 0.000000 -8.076706 -0.486706 -3.806291 7.883456 -6.885287 97.754227 8.081440 -6.855644 99.409210 2.438643 -5.291441 49.462150 0.000002 -0.000001 0.000002 4.570402 11.014686 -2.160812 -0.088790 5.301971 -0.790835 -46.822043 11.275524 -41.322887 -0.000137 -82.210274 -0.000076 -12.214939 -16.361411 -16.840210 2.466099 -1.576199 2.681702 15.482526 -7.506409 -9.163095 104.737529 41.403364 -77.048557 2.647886 -1.528739 1.528749 31.635527 38.024865 -24.163575 1.998921 -1.154112 1.154077 -0.000003 0.000003 0.000001 9.109287 -0.518009 2.259908 8.128254 6.767983 -100.465696 7.639893 6.839627 -96.345071 2.277865 5.120337 -47.943939 -0.000001 -0.000003 -0.000002 9.533419 -0.000010 0.000014 8.126332 6.768320 -100.449461 7.641805 6.839416 -96.361299 2.277857 5.120343 -47.943936 0.000002 0.000001 0.000001 9.104509 -0.042997 -1.865095 8.128252 6.767982 -100.465696 7.639894 6.839623 -96.345071 2.277862 5.120337 -47.943939 0.000001 -0.000002 -0.000000 8.077815 -0.486905 -3.806294 12.140493 6.033407 -100.402708 7.637068 2.753472 -96.311753 2.277858 5.120350 -47.943936 -0.000003 -0.000005 -0.000001 -8.207808 -6.751730 -1.599542 -33.943383 -8.330038 -28.126214 51.099845 8.578974 -8.876721 -18.383415 -3.253244 28.388394 -0.000004 0.000008 -0.000005 0.000000 -0.000000 0.000000 8.207790 -6.751718 -1.599543 -47.793784 3.058335 42.091071 51.446573 -8.676300 2.406890 -12.547438 -16.319535 -24.752698 -0.000017 0.000006 0.000002 0.000000 -0.000001 0.000000 
-0.780416 83.180458 1.527073 4.163250 -53.216654 -1.574607 0.000001 10.181547 0.131525 5.674572 1.098410 1.941993 11.693404 1.699011 1.140565 11.678674 1.809179 1.118402 0.000002 16.740362 -2.049012 -4.166340 5.668387 1.101652 -0.000008 9.617828 1.684973 5.587983 31.473911 -25.444994 0.000001 22.037399 7.501066 -0.000000 0.000000 0.000000 -4.569998 11.014879 -2.160838 0.270069 0.375165 -1.938655 -38.493956 26.065860 58.306641 0.000392 100.242199 -0.000302 -10.722558 20.150011 8.419264 -2.464782 -1.574005 2.681908 20.791453 -26.827286 29.227305 107.876752 -60.017173 67.953518 -2.646266 -1.527803 1.527825 26.887917 -38.791718 11.080621 -1.994597 -1.151570 1.151587 0.000005 0.000002 -0.000001 -9.108306 -0.517878 2.259803 7.883453 -6.885286 97.754227 8.081442 -6.855637 99.409210 2.438646 -5.291439 49.462157 -0.000001 -0.000000 -0.000002 -9.532518 -0.000005 -0.000006 7.883453 -6.885286 97.754227 8.081443 -6.855640 99.409210 2.438647 -5.291441 49.462164 -0.000002 0.000002 -0.000002 -9.103585 -0.043099 -1.865103 7.883457 -6.885284 97.754227 8.081444 -6.855634 99.409210 2.438643 -5.291439 49.462167 -0.000001 -0.000002 0.000002 -8.076691 -0.486731 -3.806293 7.883458 -6.885289 97.754227 8.081443 -6.855645 99.409210 2.438649 -5.291446 49.462150 -0.000003 0.000000 -0.000003 4.570402 11.014666 -2.160811 -0.121980 5.374194 -0.433386 -47.328379 11.709534 -39.339465 -0.000176 -82.404853 -0.000123 -12.841906 -16.067219 -16.639832 2.466098 -1.576201 2.681694 15.482523 -7.506412 -9.163104 104.737522 41.403364 -77.048557 2.647893 -1.528734 1.528760 31.635531 38.024858 -24.163573 1.998909 -1.154092 1.154071 -0.000005 -0.000002 -0.000000 9.109285 -0.518007 2.259905 8.128257 6.767980 -100.465696 7.639899 6.839629 -96.345071 2.277864 5.120335 -47.943936 0.000003 -0.000000 -0.000000 9.533415 -0.000000 0.000003 8.126330 6.768316 -100.449468 7.641807 6.839409 -96.361299 2.277865 5.120341 -47.943936 -0.000004 0.000002 0.000002 9.104510 -0.042993 -1.865091 8.128256 6.767980 -100.465696 7.639898 6.839626 -96.345071 2.277862 5.120334 -47.943939 -0.000001 -0.000001 -0.000003 8.077816 -0.486896 -3.806299 12.140491 6.033405 -100.402708 7.637071 2.753465 -96.311753 2.277850 5.120351 -47.943932 0.000004 -0.000002 0.000002 -8.207808 -6.751705 -1.599541 -33.913300 -8.282132 -28.096863 48.936878 8.551030 -9.122932 -16.872258 -2.923474 28.743700 -0.000002 0.000000 -0.000006 -0.000000 -0.000001 -0.000000 8.207804 -6.751721 -1.599547 -47.818913 3.348648 41.567152 51.384323 -8.579567 2.033726 -12.601679 -15.568738 -24.080952 -0.000016 0.000005 0.000001 0.000000 -0.000004 0.000000 
